<svg xmlns="http://www.w3.org/2000/svg" viewBox="0 0 400 400" fill="none">
  <rect width="400" height="400" fill="#f5e8c8"/>
  <path d="M130 140h140v180c0 22-18 40-40 40H170c-22 0-40-18-40-40V140z" fill="#e2cfa3" stroke="#3d2418" stroke-width="3"/>
  <path d="M270 175h35c16 0 28 12 28 28s-12 28-28 28h-35" stroke="#3d2418" stroke-width="3" fill="none"/>
  <path d="M155 110c0-8 6-14 14-14h72c8 0 14 6 14 14" stroke="#3d2418" stroke-width="3" fill="none"/>
  <path d="M160 200c20 10 60 10 80 0" stroke="#e8a040" stroke-width="4" stroke-linecap="round" opacity="0.7"/>
  <text x="200" y="320" text-anchor="middle" fill="#3d2418" font-family="Georgia, serif" font-size="22" font-style="italic">Mang Crinkle</text>
  <text x="200" y="352" text-anchor="middle" fill="#5c3d2e" font-family="system-ui, sans-serif" font-size="13" letter-spacing="3">HOT DRINK</text>
</svg>
